# xmcd
# 
# Track frame offsets:
#     150
#     14380
#     30442
#     48325
#     61947
#     76767
#     87760
#     98715
#     113837
#     125177
# 
# Disc length: 1822
# 
# Revision: 3
# Processed by: cddbd v1.5.2PL0 Copyright (c) Steve Scherf et al.
# Submitted via: fre:ac v1.0.17
# 
DISCID=71071c0a
DTITLE=Various Artist - Billboard #1 Country Hits Of The '80's
DYEAR=2002
DGENRE=Country
TTITLE0=Eddie Rabbitt - I Love A Rainy Night
TTITLE1=T.G. Sheppard - Party Time
TTITLE2=David Frizzell - I'm Gonna Hire A Wino To Decorate Our Home
TTITLE3=John Anderson - Swingin'
TTITLE4=Johnny Lee - You Could've Heard A Heart Break
TTITLE5=The Forester Sisters - Just In Case
TTITLE6=Conway Twitty - Desperado Love
TTITLE7=Nitty Gritty Dirt Band - Fishin' In The Dark
TTITLE8=Highway 101 - Cry, Cry, Cry
TTITLE9=Holly Dunn - Are You Ever Gonna Love Me
EXTD=YEAR: 2002
EXTT0=
EXTT1=
EXTT2=
EXTT3=
EXTT4=
EXTT5=
EXTT6=
EXTT7=
EXTT8=
EXTT9=
PLAYORDER=
